<svg width="18" height="18" viewBox="0 0 18 18" fill="none" xmlns="http://www.w3.org/2000/svg">
<path fill-rule="evenodd" clip-rule="evenodd" d="M11.8476 3.67427C12.1312 3.67816 12.4154 3.68205 12.7007 3.68497C15.7655 3.68497 18 5.86994 18 8.88728V12.763C18 15.7803 15.7655 17.9653 12.7007 17.9653C11.473 17.9913 10.2453 18 9.00883 18C7.77233 18 6.52699 17.9913 5.29931 17.9653C2.23454 17.9653 0 15.7803 0 12.763V8.88728C0 5.86994 2.23454 3.68497 5.30815 3.68497C6.46516 3.66763 7.64867 3.65029 8.84985 3.65029V3.50289C8.84985 2.90462 8.34642 2.41908 7.74583 2.41908H6.87144C5.87341 2.41908 5.06084 1.62139 5.06084 0.650289C5.06084 0.294798 5.36114 0 5.72326 0C6.09421 0 6.38567 0.294798 6.38567 0.650289C6.38567 0.910405 6.60648 1.1185 6.87144 1.1185H7.74583C9.07949 1.12717 10.1658 2.19364 10.1747 3.49422V3.65896C10.7315 3.65896 11.2882 3.6666 11.8476 3.67427ZM7.96664 11.4711H7.03926V12.3902C7.03926 12.7457 6.73897 13.0405 6.37685 13.0405C6.0059 13.0405 5.71443 12.7457 5.71443 12.3902V11.4711H4.77822C4.4161 11.4711 4.11581 11.185 4.11581 10.8209C4.11581 10.4654 4.4161 10.1706 4.77822 10.1706H5.71443V9.26016C5.71443 8.90467 6.0059 8.60988 6.37685 8.60988C6.73897 8.60988 7.03926 8.90467 7.03926 9.26016V10.1706H7.96664C8.32876 10.1706 8.62906 10.4654 8.62906 10.8209C8.62906 11.185 8.32876 11.4711 7.96664 11.4711ZM11.7203 10.0058H11.8087C12.1708 10.0058 12.4711 9.7197 12.4711 9.35554C12.4711 9.00005 12.1708 8.70525 11.8087 8.70525H11.7203C11.3494 8.70525 11.0579 9.00005 11.0579 9.35554C11.0579 9.7197 11.3494 10.0058 11.7203 10.0058ZM13.2306 12.9885H13.319C13.6811 12.9885 13.9814 12.7024 13.9814 12.3382C13.9814 11.9827 13.6811 11.6879 13.319 11.6879H13.2306C12.8588 11.6879 12.5682 11.9827 12.5682 12.3382C12.5682 12.7024 12.8588 12.9885 13.2306 12.9885Z" fill="#CBD5E3"/>
</svg>
