<svg width="37" height="37" viewBox="0 0 37 37" fill="none" xmlns="http://www.w3.org/2000/svg">
<circle cx="18.5" cy="18.5" r="18.5" fill="white"/>
<path d="M24.1441 14.2066V12.829H15.0581L20.4046 18.4962C20.7393 18.8514 20.7348 19.4035 20.3939 19.7527L15.1077 25.1711H24.1439V24.339C24.1439 23.8349 24.5601 23.4248 25.0718 23.4248C25.5833 23.4248 25.9999 23.8349 25.9999 24.339V26.0853C25.9999 26.5896 25.5835 27 25.0718 27H12.9283C12.5559 27 12.2206 26.7818 12.0745 26.4437C11.9283 26.1058 12.0011 25.7164 12.2592 25.4516L18.4481 19.1084L12.2486 12.5372C11.9974 12.2706 11.9302 11.883 12.0776 11.5492C12.2251 11.2156 12.5591 11 12.9283 11H25.072C25.5835 11 26.0001 11.4102 26.0001 11.9146V14.2066C26.0001 14.7109 25.5837 15.1212 25.072 15.1212C24.5603 15.1212 24.1441 14.7111 24.1441 14.2066Z" fill="#FF6600" stroke="#FF6600" stroke-width="0.5"/>
</svg>
