<svg width="48" height="47" viewBox="0 0 48 47" fill="none" xmlns="http://www.w3.org/2000/svg">
<ellipse cx="23.9953" cy="23.5" rx="23.2864" ry="23.5" fill="#F2F7FC"/>
<g clip-path="url(#clip0)">
<path d="M24.4909 13.5958C25.7735 13.5958 26.8133 12.567 26.8133 11.2979C26.8133 10.0288 25.7735 9 24.4909 9C23.2083 9 22.1685 10.0288 22.1685 11.2979C22.1685 12.567 23.2083 13.5958 24.4909 13.5958Z" fill="#9E00FF"/>
<path d="M21.0071 18.766H27.9745C28.4555 18.766 28.8454 18.3802 28.8454 17.9043V17.3298C28.8454 16.0534 28.281 14.9054 27.3867 14.1158C26.6489 14.8579 25.6235 15.3192 24.4908 15.3192C23.3582 15.3192 22.3327 14.8579 21.5949 14.1158C20.7006 14.9054 20.1362 16.0534 20.1362 17.3298V17.9043C20.1362 18.3802 20.5262 18.766 21.0071 18.766Z" fill="#9E00FF"/>
<path d="M20.0783 34.1323C21.0402 34.1323 21.8201 33.3607 21.8201 32.4089C21.8201 31.4571 21.0402 30.6855 20.0783 30.6855C19.1163 30.6855 18.3364 31.4571 18.3364 32.4089C18.3364 33.3607 19.1163 34.1323 20.0783 34.1323Z" fill="#9E00FF"/>
<path d="M35.747 22.0843C35.2068 20.7661 33.9288 19.9143 32.4911 19.9143C31.27 19.9143 30.1554 20.5264 29.5095 21.5518C29.3646 21.782 29.0961 21.9249 28.8087 21.9249H20.1729C19.8856 21.9249 19.6171 21.782 19.4721 21.5518C18.8262 20.5264 17.7116 19.9143 16.4905 19.9143C15.0529 19.9143 13.7749 20.7661 13.2347 22.0843L10.2391 29.3954C9.83308 30.3864 9.6272 31.431 9.6272 32.5003C9.6272 33.696 10.2346 34.7967 11.252 35.4445C11.832 35.8139 12.4864 36 13.1589 36C13.6959 36 14.2445 35.8812 14.7756 35.6421C14.7988 35.6317 14.8209 35.6193 14.842 35.605L17.0473 34.1049C16.7597 33.6038 16.5946 33.0253 16.5946 32.409C16.5946 30.5084 18.1574 28.9622 20.0782 28.9622C21.9991 28.9622 23.5619 30.5084 23.5619 32.409C23.5619 32.5549 23.5516 32.6986 23.5338 32.8398H25.4481C25.4302 32.6986 25.4199 32.5549 25.4199 32.409C25.4199 30.5084 26.9827 28.9622 28.9036 28.9622C30.8245 28.9622 32.3873 30.5084 32.3873 32.409C32.3873 33.0253 32.2221 33.6038 31.9346 34.1049L33.7763 35.3577C34.3734 35.7639 35.0554 35.9856 35.7486 35.9987C36.7063 36.0169 37.611 35.6617 38.2945 34.9983C38.978 34.3348 39.3545 33.4477 39.3545 32.5003C39.3545 31.431 39.1486 30.3864 38.7426 29.3954L35.747 22.0843ZM19.4976 26.7217H18.6267V27.5834C18.6267 28.0593 18.2367 28.4451 17.7557 28.4451C17.2748 28.4451 16.8848 28.0593 16.8848 27.5834V26.7217H16.0139C15.5329 26.7217 15.143 26.3359 15.143 25.86C15.143 25.3841 15.5329 24.9983 16.0139 24.9983H16.8848V24.1366C16.8848 23.6607 17.2748 23.2749 17.7557 23.2749C18.2367 23.2749 18.6267 23.6607 18.6267 24.1366V24.9983H19.4976C19.9786 24.9983 20.3685 25.3841 20.3685 25.86C20.3685 26.3359 19.9786 26.7217 19.4976 26.7217ZM29.4841 26.7217C29.0031 26.7217 28.6132 26.3359 28.6132 25.86C28.6132 25.3841 29.0031 24.9983 29.4841 24.9983C29.9651 24.9983 30.355 25.3841 30.355 25.86C30.355 26.3359 29.9651 26.7217 29.4841 26.7217ZM32.9678 26.7217C32.4868 26.7217 32.0968 26.3359 32.0968 25.86C32.0968 25.3841 32.4868 24.9983 32.9678 24.9983C33.4487 24.9983 33.8387 25.3841 33.8387 25.86C33.8387 26.3359 33.4487 26.7217 32.9678 26.7217Z" fill="#9E00FF"/>
<path d="M28.9035 34.1323C29.8654 34.1323 30.6453 33.3607 30.6453 32.4089C30.6453 31.4571 29.8654 30.6855 28.9035 30.6855C27.9415 30.6855 27.1616 31.4571 27.1616 32.4089C27.1616 33.3607 27.9415 34.1323 28.9035 34.1323Z" fill="#9E00FF"/>
</g>
<defs>
<clipPath id="clip0">
<rect width="29.7273" height="27" fill="white" transform="translate(9.6272 9)"/>
</clipPath>
</defs>
</svg>
