<svg width="48" height="47" viewBox="0 0 48 47" fill="none" xmlns="http://www.w3.org/2000/svg">
<ellipse cx="23.9953" cy="23.5" rx="23.2864" ry="23.5" fill="#F2F7FC"/>
<path d="M30.8608 10H25.7647V15.2767C27.5883 15.4812 29.3365 16.1319 30.8608 17.1734V10ZM23.2167 10H18.1206V17.1734C19.6449 16.1319 21.3931 15.4812 23.2167 15.2767V10ZM24.4907 36C26.8559 36 29.1243 35.0413 30.7968 33.3347C32.4693 31.6281 33.4089 29.3135 33.4089 26.9C33.4089 24.4865 32.4693 22.1719 30.7968 20.4653C29.1243 18.7587 26.8559 17.8 24.4907 17.8C22.1254 17.8 19.8571 18.7587 18.1846 20.4653C16.5121 22.1719 15.5725 24.4865 15.5725 26.9C15.5725 29.3135 16.5121 31.6281 18.1846 33.3347C19.8571 35.0413 22.1254 36 24.4907 36ZM22.93 24.9253L24.4907 21.7L26.0514 24.9253L29.5397 25.4414L27.0158 27.953L27.6121 31.4981L24.4907 29.825L21.3706 31.4981L21.9668 27.953L19.443 25.4414L22.93 24.9253Z" fill="#9E00FF"/>
</svg>
