<svg width="47" height="47" viewBox="0 0 47 47" fill="none" xmlns="http://www.w3.org/2000/svg">
<circle cx="23.5" cy="23.5" r="23.5" fill="#F2F7FC"/>
<g clip-path="url(#clip0)">
<path d="M14.0213 24.7852C13.9866 24.5273 13.7705 24.3283 13.5103 24.3292L10.5361 24.3405C10.2487 24.3416 10.0205 24.5843 10.0491 24.8703C10.1978 26.3573 10.5877 27.7922 11.2002 29.129C11.32 29.3903 11.6397 29.4842 11.8882 29.3396L14.4649 27.8404C14.69 27.7094 14.7755 27.4282 14.6748 27.188C14.3573 26.4313 14.1347 25.6254 14.0213 24.7852Z" fill="#9E00FF"/>
<path d="M23.5011 15.5166C19.0997 15.5166 15.5188 19.0975 15.5188 23.499C15.5188 27.9005 19.0997 31.4813 23.5011 31.4813C27.9026 31.4813 31.4835 27.9005 31.4835 23.499C31.4835 19.0975 27.9026 15.5166 23.5011 15.5166ZM27.2195 25.658C26.7167 26.4792 25.9347 26.9352 25.0176 26.942C24.7726 26.9441 24.5296 26.9132 24.2935 26.8516V27.7773H22.7089V26.8514C22.4793 26.9111 22.2431 26.9421 22.0054 26.9421C21.9985 26.9421 21.9917 26.9421 21.9848 26.942C21.0676 26.9352 20.2856 26.4792 19.7829 25.6581C19.2717 24.8231 19.2553 23.7965 19.7391 22.9118C20.0836 22.2818 20.6057 21.7906 21.0663 21.3572C21.1421 21.2859 21.2172 21.2152 21.2905 21.1449C21.5747 20.8721 21.8598 20.6113 22.1356 20.3591C22.4044 20.1134 22.6823 19.8593 22.9525 19.5999L23.5013 19.073L24.0501 19.5999C24.3202 19.8594 24.5982 20.1134 24.867 20.3591C25.1428 20.6113 25.428 20.872 25.7121 21.1449C25.7854 21.2153 25.8605 21.2859 25.9363 21.3572C26.397 21.7906 26.919 22.2818 27.2634 22.9117H27.2635C27.747 23.7964 27.7307 24.823 27.2195 25.658Z" fill="#9E00FF"/>
<path d="M27.831 32.5408C27.7004 32.3156 27.4193 32.2297 27.179 32.3302C26.4219 32.6466 25.6157 32.8683 24.7754 32.9806C24.5175 33.0151 24.3181 33.2309 24.3188 33.4911L24.3263 36.4653C24.327 36.7527 24.5695 36.9812 24.8555 36.9529C26.3428 36.8061 27.7783 36.4181 29.1157 35.8073C29.3772 35.6879 29.4715 35.3683 29.3272 35.1197L27.831 32.5408Z" fill="#9E00FF"/>
<path d="M25.8729 23.672C25.6493 23.2632 25.2431 22.8809 24.8502 22.5112C24.7704 22.4362 24.6914 22.3619 24.6143 22.2878C24.3441 22.0283 24.0662 21.7743 23.7974 21.5285C23.6996 21.4391 23.6006 21.3487 23.501 21.2569C23.4014 21.3486 23.3024 21.4391 23.2047 21.5285C22.9359 21.7742 22.658 22.0283 22.3878 22.2878C22.3107 22.3617 22.2317 22.4361 22.152 22.5111C21.759 22.8809 21.3528 23.2631 21.1291 23.672C20.9149 24.0639 20.9167 24.4753 21.1341 24.8306C21.3525 25.1873 21.6265 25.3546 21.9965 25.3574C22.233 25.3594 22.4679 25.2899 22.6785 25.157L23.501 24.6417L24.3216 25.1557C24.5341 25.2898 24.7695 25.3592 25.0056 25.3574C25.3756 25.3546 25.6496 25.1872 25.8679 24.8306C26.0854 24.4754 26.0872 24.0639 25.8729 23.672Z" fill="#9E00FF"/>
<path d="M22.734 33.4954C22.7333 33.2351 22.5329 33.0203 22.2748 32.9872C21.4337 32.879 20.6265 32.6611 19.868 32.3485C19.6272 32.2493 19.3465 32.3366 19.217 32.5625L17.7339 35.1488C17.5909 35.3982 17.6869 35.7173 17.9489 35.8354C19.2891 36.4392 20.7264 36.8202 22.2148 36.9597C22.5009 36.9865 22.7422 36.7568 22.7415 36.4693L22.734 33.4954Z" fill="#9E00FF"/>
<path d="M24.8214 10.0416C24.5353 10.0141 24.2935 10.2432 24.2935 10.5306V13.5047C24.2935 13.7649 24.4933 13.9802 24.7513 14.014C25.5921 14.1243 26.3987 14.344 27.1566 14.6586C27.3971 14.7584 27.678 14.6719 27.8081 14.4463L29.2978 11.8635C29.4415 11.6145 29.3464 11.2951 29.0846 11.1764C27.7458 10.5691 26.3093 10.1848 24.8214 10.0416Z" fill="#9E00FF"/>
<path d="M11.844 17.7468C11.5944 17.6042 11.2754 17.7005 11.1576 17.9627C10.5556 19.3034 10.1763 20.7411 10.0386 22.2298C10.0121 22.516 10.2421 22.757 10.5296 22.7559L13.5035 22.7447C13.7637 22.7437 13.9782 22.543 14.0111 22.2848C14.1182 21.4436 14.3351 20.6361 14.6468 19.8772C14.7457 19.6364 14.658 19.3558 14.432 19.2265L11.844 17.7468Z" fill="#9E00FF"/>
<path d="M16.279 12.6953C16.1338 12.4465 15.8084 12.3708 15.5753 12.5401C14.9995 12.9584 14.4526 13.4249 13.9397 13.9378C13.3979 14.4795 12.9084 15.0595 12.4726 15.6711C12.3054 15.9057 12.384 16.2304 12.634 16.3734L15.2217 17.8529C15.4472 17.9818 15.7328 17.9156 15.8904 17.7091C16.3958 17.0463 16.9856 16.4513 17.6437 15.9401C17.8489 15.7808 17.9125 15.4945 17.7816 15.2701L16.279 12.6953Z" fill="#9E00FF"/>
<path d="M15.9347 29.3466C15.7756 29.1412 15.4895 29.0772 15.265 29.2078L12.6882 30.7071C12.4392 30.852 12.3632 31.1773 12.5321 31.4106C12.9529 31.9915 13.4227 32.5431 13.9398 33.0602C14.4774 33.5978 15.0526 34.084 15.6591 34.5173C15.8935 34.6848 16.2183 34.6067 16.3616 34.3568L17.8444 31.7709C17.9736 31.5455 17.9078 31.2598 17.7014 31.102C17.0393 30.5958 16.4451 30.0053 15.9347 29.3466Z" fill="#9E00FF"/>
<path d="M31.7657 29.166C31.5405 29.0365 31.2547 29.1019 31.0966 29.3081C30.5896 29.9695 29.9983 30.5631 29.3389 31.0726C29.1333 31.2314 29.069 31.5175 29.1993 31.7422L30.6953 34.3207C30.8399 34.5699 31.1651 34.6464 31.3986 34.4777C31.9846 34.0544 32.541 33.5813 33.0621 33.0601C33.5956 32.5266 34.0786 31.9561 34.5094 31.3547C34.6772 31.1206 34.5994 30.7956 34.3497 30.652L31.7657 29.166Z" fill="#9E00FF"/>
<path d="M17.8556 11.2051C17.5944 11.3252 17.501 11.6451 17.6459 11.8933L19.1483 14.4679C19.2795 14.6928 19.5609 14.778 19.8009 14.677C20.5717 14.3525 21.3937 14.1263 22.2509 14.014C22.509 13.9802 22.7088 13.7649 22.7088 13.5047V10.5306C22.7088 10.2432 22.467 10.0141 22.1809 10.0416C20.6699 10.187 19.2121 10.5814 17.8556 11.2051Z" fill="#9E00FF"/>
<path d="M35.8167 17.8999C35.6977 17.6382 35.3781 17.5435 35.1293 17.6875L32.5483 19.1805C32.323 19.3109 32.2367 19.5919 32.3368 19.8323C32.6523 20.5898 32.8731 21.3962 32.9844 22.2367C33.0185 22.4947 33.2341 22.6943 33.4943 22.694L36.4684 22.6902C36.7558 22.6899 36.9846 22.4477 36.9567 22.1617C36.8118 20.6741 36.4257 19.238 35.8167 17.8999Z" fill="#9E00FF"/>
<path d="M33.4964 24.2786C33.2362 24.2789 33.0211 24.4791 32.9876 24.7371C32.8785 25.578 32.6596 26.385 32.346 27.1432C32.2465 27.3838 32.3335 27.6646 32.5592 27.7944L35.1437 29.2808C35.3929 29.4241 35.7122 29.3286 35.8306 29.0666C36.4361 27.7272 36.8187 26.2904 36.9601 24.8022C36.9872 24.5161 36.7578 24.2745 36.4704 24.2749L33.4964 24.2786Z" fill="#9E00FF"/>
<path d="M33.062 13.9378C32.5326 13.4084 31.9668 12.9288 31.3706 12.5004C31.1366 12.3324 30.8116 12.4097 30.6677 12.6592L29.1783 15.2414C29.0485 15.4664 29.1136 15.7523 29.3196 15.9106C29.9803 16.4185 30.5731 17.0105 31.0818 17.6706C31.2404 17.8764 31.5264 17.9412 31.7513 17.8111L34.3316 16.3184C34.581 16.1742 34.6579 15.849 34.4895 15.6153C34.0637 15.0242 33.5873 14.4631 33.062 13.9378Z" fill="#9E00FF"/>
</g>
<defs>
<clipPath id="clip0">
<rect width="27" height="27" fill="white" transform="translate(10 10)"/>
</clipPath>
</defs>
</svg>
