<svg width="28" height="28" viewBox="0 0 28 28" fill="none" xmlns="http://www.w3.org/2000/svg">
<path d="M14.3023 14.7201L25.3254 14.7201C25.7002 14.7201 26 14.4114 26 14.0257C26 13.6399 25.7002 13.3313 25.3254 13.3313L14.3023 13.3313C13.9875 11.7214 12.6034 10.5023 10.9444 10.5023C9.28545 10.5023 7.90131 11.7213 7.58651 13.3313L2.67957 13.3313C2.30481 13.3313 2.00499 13.6399 2.00499 14.0257C2.00499 14.4114 2.30481 14.7201 2.67957 14.7201L7.58651 14.7201C7.90131 16.33 9.28545 17.549 10.9444 17.549C12.5984 17.549 13.9875 16.3352 14.3023 14.7201ZM8.8707 14.0257C8.8707 12.8478 9.80012 11.8911 10.9444 11.8911C12.0887 11.8911 13.0181 12.8478 13.0181 14.0257C13.0181 15.2036 12.0887 16.1603 10.9444 16.1603C9.80012 16.1603 8.8707 15.2036 8.8707 14.0257Z" fill="#0076E4" stroke="#0076E4"/>
<path d="M19.9588 6.21775L25.3254 6.21775C25.7002 6.21775 26 5.90913 26 5.52336C26 5.13759 25.7002 4.82898 25.3254 4.82898L19.9588 4.82898C19.644 3.21903 18.2598 2 16.6009 2C14.9419 2 13.5578 3.21903 13.243 4.82897L2.67957 4.82897C2.30481 4.82897 2.00499 5.13759 2.00499 5.52336C2.00499 5.90913 2.30481 6.21774 2.67957 6.21774L13.248 6.21774C13.5628 7.82769 14.9469 9.04672 16.6059 9.04672C18.2648 9.04672 19.644 7.82769 19.9588 6.21775ZM14.5272 5.52336C14.5272 4.34548 15.4566 3.38877 16.6009 3.38877C17.7452 3.38877 18.6746 4.34548 18.6746 5.52336C18.6746 6.70124 17.7452 7.65795 16.6009 7.65795C15.4566 7.65795 14.5272 6.6961 14.5272 5.52336Z" fill="#0076E4" stroke="#0076E4"/>
<path d="M19.9588 23.1711L25.3254 23.1711C25.7002 23.1711 26 22.8625 26 22.4767C26 22.091 25.7002 21.7823 25.3254 21.7823L19.9588 21.7823C19.644 20.1724 18.2598 18.9534 16.6009 18.9534C14.9419 18.9534 13.5578 20.1724 13.243 21.7823L2.67457 21.7823C2.29981 21.7823 2 22.091 2 22.4767C2 22.8625 2.29981 23.1711 2.67457 23.1711L13.248 23.1711C13.5628 24.7811 14.9469 26.0001 16.6059 26.0001C18.2648 26.0001 19.644 24.7862 19.9588 23.1711ZM14.5272 22.4767C14.5272 21.2988 15.4566 20.3421 16.6009 20.3421C17.7452 20.3421 18.6746 21.2988 18.6746 22.4767C18.6746 23.6546 17.7452 24.6113 16.6009 24.6113C15.4566 24.6113 14.5272 23.6546 14.5272 22.4767Z" fill="#0076E4" stroke="#0076E4"/>
</svg>
