<svg width="14" height="15" viewBox="0 0 14 15" fill="none" xmlns="http://www.w3.org/2000/svg">
<path d="M10.9732 7.13447C11.5713 7.0868 12.0964 6.85221 12.5362 6.43446C14.048 4.99868 14.002 1.79879 13.9993 1.6633C13.9944 1.41167 13.7742 1.21011 13.5042 1.20993L11.0135 1.2084V0.230982C11.0135 0.103387 10.9025 0 10.7657 0H3.23424C3.09744 0 2.9865 0.103387 2.9865 0.230982V1.20831L0.495762 1.20988C0.225818 1.21007 0.00567095 1.41162 0.000666486 1.66325C-0.00205872 1.79879 -0.0479413 4.99863 1.4638 6.43441C1.90365 6.85217 2.42872 7.08675 3.02678 7.13443C3.25555 8.62763 4.45533 9.83206 6.00905 10.1733V13.0806H4.75382C4.6728 13.0806 4.59695 13.1175 4.55062 13.1794L3.46054 14.6369C3.40772 14.7075 3.40142 14.7996 3.44413 14.8759C3.4868 14.9522 3.57148 15 3.66379 15C3.66379 15 10.337 15 10.3374 15C10.4742 15 10.5851 14.8966 10.5851 14.769C10.5851 14.7131 10.56 14.6676 10.5284 14.6219L9.44949 13.1794C9.40316 13.1175 9.3273 13.0805 9.24629 13.0805H7.99106V10.1734C9.54468 9.83206 10.7445 8.62768 10.9732 7.13447ZM13.0007 2.13349C12.9529 3.15595 12.6939 4.96583 11.829 5.7872C11.5901 6.01407 11.3213 6.1498 11.0135 6.19881V2.13224L13.0007 2.13349ZM0.999726 2.13349L2.9865 2.13228V6.19881C2.67895 6.1498 2.41044 6.01444 2.17171 5.78794C1.30857 4.96902 1.04843 3.15701 0.999726 2.13349ZM4.94701 3.85532L6.3656 3.66314L7.00003 2.46467L7.63446 3.66314L9.05305 3.85532L8.02654 4.78821L8.26888 6.10549L7.00008 5.48355L5.73127 6.10549L5.97362 4.78821L4.94701 3.85532Z" fill="#CBD5E3"/>
</svg>
